<svg width="2145" height="700" viewBox="0 0 2145 700" fill="none" xmlns="http://www.w3.org/2000/svg">
<path d="M2078.22 300C2068.89 300 2060.89 303.333 2054.22 310C2047.55 316.667 2044.22 324.667 2044.22 334V366C2044.22 375.333 2047.55 383.333 2054.22 390C2060.89 396.667 2068.89 400 2078.22 400H2110.22C2119.55 400 2127.55 403.333 2134.22 410C2140.89 416.667 2144.22 424.667 2144.22 434V566C2144.22 575.333 2140.89 583.333 2134.22 590C2127.55 596.667 2119.55 600 2110.22 600H2078.22C2068.89 600 2060.89 603.333 2054.22 610C2047.55 616.667 2044.22 624.667 2044.22 634V666C2044.22 675.333 2040.89 683.333 2034.22 690C2027.55 696.667 2019.55 700 2010.22 700H1878.22C1868.89 700 1860.89 696.667 1854.22 690C1847.55 683.333 1844.22 675.333 1844.22 666V634C1844.22 624.667 1840.89 616.667 1834.22 610C1827.55 603.333 1819.55 600 1810.22 600H1778.22C1768.89 600 1760.89 603.333 1754.22 610C1747.55 616.667 1744.22 624.667 1744.22 634V666C1744.22 675.333 1740.89 683.333 1734.22 690C1727.55 696.667 1719.55 700 1710.22 700H1678.22C1668.89 700 1660.89 696.667 1654.22 690C1647.55 683.333 1644.22 675.333 1644.22 666V634C1644.22 624.667 1647.55 616.667 1654.22 610C1660.89 603.333 1668.89 600 1678.22 600H1710.22C1719.55 600 1727.55 596.667 1734.22 590C1740.89 583.333 1744.22 575.333 1744.22 566V134C1744.22 124.667 1740.89 116.667 1734.22 110C1727.55 103.333 1719.55 100 1710.22 100H1678.22C1668.89 100 1660.89 96.6667 1654.22 90C1647.55 83.3334 1644.22 75.3334 1644.22 66.0001V34.0001C1644.22 24.6667 1647.55 16.6667 1654.22 10C1660.89 3.33334 1668.89 0 1678.22 0H2010.22C2019.55 0 2027.55 3.33334 2034.22 10C2040.89 16.6667 2044.22 24.6667 2044.22 34.0001V66.0001C2044.22 75.3334 2047.55 83.3334 2054.22 90C2060.89 96.6667 2068.89 100 2078.22 100H2110.22C2119.55 100 2127.55 103.333 2134.22 110C2140.89 116.667 2144.22 124.667 2144.22 134V266C2144.22 275.333 2140.89 283.333 2134.22 290C2127.55 296.667 2119.55 300 2110.22 300H2078.22ZM2010.22 300C2019.55 300 2027.55 296.667 2034.22 290C2040.89 283.333 2044.22 275.333 2044.22 266V134C2044.22 124.667 2040.89 116.667 2034.22 110C2027.55 103.333 2019.55 100 2010.22 100H1878.22C1868.89 100 1860.89 103.333 1854.22 110C1847.55 116.667 1844.22 124.667 1844.22 134V266C1844.22 275.333 1847.55 283.333 1854.22 290C1860.89 296.667 1868.89 300 1878.22 300H2010.22ZM2044.22 434C2044.22 424.667 2040.89 416.667 2034.22 410C2027.55 403.333 2019.55 400 2010.22 400H1878.22C1868.89 400 1860.89 403.333 1854.22 410C1847.55 416.667 1844.22 424.667 1844.22 434V566C1844.22 575.333 1847.55 583.333 1854.22 590C1860.89 596.667 1868.89 600 1878.22 600H2010.22C2019.55 600 2027.55 596.667 2034.22 590C2040.89 583.333 2044.22 575.333 2044.22 566V434Z" fill="white"/>
<path d="M1514.61 34.0001V566C1514.61 575.333 1511.28 583.333 1504.61 590C1497.94 596.667 1489.94 600 1480.61 600H1448.61C1439.28 600 1431.28 603.333 1424.61 610C1417.94 616.667 1414.61 624.667 1414.61 634V666C1414.61 675.333 1411.28 683.333 1404.61 690C1397.94 696.667 1389.94 700 1380.61 700H1148.61C1139.28 700 1131.28 696.667 1124.61 690C1117.94 683.333 1114.61 675.333 1114.61 666V634C1114.61 624.667 1111.28 616.667 1104.61 610C1097.94 603.333 1089.94 600 1080.61 600H1048.61C1039.28 600 1031.28 596.667 1024.61 590C1017.94 583.333 1014.61 575.333 1014.61 566V34.0001C1014.61 24.6667 1017.94 16.6667 1024.61 10C1031.28 3.33334 1039.28 0 1048.61 0H1080.61C1089.94 0 1097.94 3.33334 1104.61 10C1111.28 16.6667 1114.61 24.6667 1114.61 34.0001V566C1114.61 575.333 1117.94 583.333 1124.61 590C1131.28 596.667 1139.28 600 1148.61 600H1380.61C1389.94 600 1397.94 596.667 1404.61 590C1411.28 583.333 1414.61 575.333 1414.61 566V34.0001C1414.61 24.6667 1417.94 16.6667 1424.61 10C1431.28 3.33334 1439.28 0 1448.61 0H1480.61C1489.94 0 1497.94 3.33334 1504.61 10C1511.28 16.6667 1514.61 24.6667 1514.61 34.0001Z" fill="white"/>
<path d="M785 334V366C785 375.333 788.333 383.333 795 390C801.667 396.667 809.667 400 819 400H851C860.333 400 868.333 403.333 875 410C881.667 416.667 885 424.667 885 434V666C885 675.333 881.667 683.333 875 690C868.333 696.667 860.333 700 851 700H819C809.667 700 801.667 696.667 795 690C788.333 683.333 785 675.333 785 666V434C785 424.667 781.667 416.667 775 410C768.333 403.333 760.333 400 751 400H519C509.667 400 501.667 403.333 495 410C488.333 416.667 485 424.667 485 434V666C485 675.333 481.667 683.333 475 690C468.333 696.667 460.333 700 451 700H419C409.667 700 401.667 696.667 395 690C388.333 683.333 385 675.333 385 666V434C385 424.667 388.333 416.667 395 410C401.667 403.333 409.667 400 419 400H451C460.333 400 468.333 396.667 475 390C481.667 383.333 485 375.333 485 366V334C485 324.667 481.667 316.667 475 310C468.333 303.333 460.333 300 451 300H419C409.667 300 401.667 296.667 395 290C388.333 283.333 385 275.333 385 266V34.0001C385 24.6667 388.333 16.6667 395 10C401.667 3.33334 409.667 0 419 0H451C460.333 0 468.333 3.33334 475 10C481.667 16.6667 485 24.6667 485 34.0001V266C485 275.333 488.333 283.333 495 290C501.667 296.667 509.667 300 519 300H751C760.333 300 768.333 296.667 775 290C781.667 283.333 785 275.333 785 266V34.0001C785 24.6667 788.333 16.6667 795 10C801.667 3.33334 809.667 0 819 0H851C860.333 0 868.333 3.33334 875 10C881.667 16.6667 885 24.6667 885 34.0001V266C885 275.333 881.667 283.333 875 290C868.333 296.667 860.333 300 851 300H819C809.667 300 801.667 303.333 795 310C788.333 316.667 785 324.667 785 334Z" fill="white"/>
<path d="M54.0392 158.983L66.7578 158.983C70.4674 158.983 73.6471 157.658 76.2968 155.008C78.9465 152.359 80.2714 149.179 80.2714 145.469L80.2714 133.148C80.2714 129.438 81.5963 126.259 84.246 123.609C86.8957 120.694 90.0753 119.237 93.7849 119.237L106.504 119.237C110.213 119.237 113.393 117.912 116.043 115.262C118.692 112.613 120.017 109.433 120.017 105.724L120.017 53.6566C120.017 49.947 121.342 46.7674 123.992 44.1177C126.641 41.203 129.821 39.7456 133.531 39.7456L146.249 39.7456C149.959 39.7456 153.139 41.203 155.788 44.1177C158.438 46.7674 159.763 49.947 159.763 53.6566L159.763 105.724C159.763 109.433 161.088 112.613 163.737 115.262C166.387 117.912 169.567 119.237 173.276 119.237L185.995 119.237C189.705 119.237 192.884 120.694 195.534 123.609C198.184 126.259 199.509 129.438 199.509 133.148L199.509 145.469C199.509 149.179 200.833 152.359 203.483 155.008C206.133 157.658 209.313 158.983 213.022 158.983L225.741 158.983C229.45 158.983 232.63 157.658 235.28 155.008C237.929 152.359 239.254 149.179 239.254 145.469L239.254 13.9109C239.254 10.2013 240.579 7.02166 243.229 4.37195C245.879 1.45727 249.058 -0.000102226 252.768 -0.000102182L265.486 -0.00010203C269.196 -0.000101986 272.376 1.45727 275.025 4.37195C277.675 7.02166 279 10.2013 279 13.9109L279 145.469C279 149.179 277.675 152.359 275.025 155.008C272.376 157.658 269.196 158.983 265.486 158.983L252.768 158.983C249.058 158.983 245.879 160.44 243.229 163.355C240.579 166.005 239.254 169.184 239.254 172.894L239.254 185.215C239.254 188.925 237.929 192.104 235.28 194.754C232.63 197.404 229.45 198.729 225.741 198.729L173.276 198.729C169.567 198.729 166.387 197.404 163.737 194.754C161.088 192.104 159.763 188.925 159.763 185.215L159.763 133.148C159.763 129.438 158.438 126.259 155.788 123.609C153.139 120.694 149.959 119.237 146.249 119.237L133.531 119.237C129.821 119.237 126.641 120.694 123.992 123.609C121.342 126.259 120.017 129.438 120.017 133.148L120.017 145.469C120.017 149.179 118.692 152.359 116.043 155.008C113.393 157.658 110.213 158.983 106.504 158.983L93.7849 158.983C90.0753 158.983 86.8957 160.44 84.246 163.355C81.5963 166.005 80.2714 169.184 80.2714 172.894L80.2714 185.215C80.2714 188.925 78.9465 192.104 76.2968 194.754C73.6471 197.404 70.4674 198.729 66.7578 198.729L54.0392 198.729C50.3296 198.729 47.15 197.404 44.5002 194.754C41.8505 192.104 40.5257 188.925 40.5257 185.215L40.5257 172.894C40.5257 169.184 39.2008 166.005 36.5511 163.355C33.9014 160.44 30.7217 158.983 27.0121 158.983L14.2935 158.983C10.5839 158.983 7.40423 157.658 4.75451 155.008C2.10479 152.359 0.779938 149.179 0.779938 145.469L0.77994 13.9109C0.77994 10.2013 2.1048 7.02166 4.75451 4.37194C7.40424 1.45726 10.5839 -0.00010507 14.2935 -0.000105026L27.0121 -0.000104874C30.7217 -0.00010483 33.9014 1.45726 36.5511 4.37194C39.2008 7.02166 40.5257 10.2013 40.5257 13.9109L40.5257 145.469C40.5257 149.179 41.8505 152.359 44.5002 155.008C47.15 157.658 50.3296 158.983 54.0392 158.983Z" fill="white"/>
<path d="M133.531 290.386L146.249 290.386C149.959 290.386 153.139 289.061 155.788 286.411C158.438 283.762 159.763 280.582 159.763 276.872L159.763 264.154C159.763 260.444 161.088 257.265 163.737 254.615C166.387 251.965 169.567 250.64 173.276 250.64L265.486 250.64C269.196 250.64 272.376 251.965 275.025 254.615C277.675 257.265 279 260.444 279 264.154L279 276.872C279 280.582 277.675 283.762 275.025 286.411C272.376 289.061 269.196 290.386 265.486 290.386L173.276 290.386C169.567 290.386 166.387 291.711 163.737 294.361C161.088 297.01 159.763 300.19 159.763 303.9L159.763 396.11C159.763 399.819 161.088 402.999 163.737 405.649C166.387 408.298 169.567 409.623 173.276 409.623L265.486 409.623C269.196 409.623 272.376 410.948 275.025 413.598C277.675 416.247 279 419.427 279 423.137L279 435.855C279 439.565 277.675 442.745 275.025 445.394C272.376 448.044 269.196 449.369 265.486 449.369L173.276 449.369C169.567 449.369 166.387 448.044 163.737 445.394C161.088 442.745 159.763 439.565 159.763 435.855L159.763 423.137C159.763 419.427 158.438 416.247 155.788 413.598C153.139 410.948 149.959 409.623 146.249 409.623L133.531 409.623C129.821 409.623 126.641 410.948 123.992 413.598C121.342 416.247 120.017 419.427 120.017 423.137L120.017 435.855C120.017 439.565 118.692 442.745 116.043 445.394C113.393 448.044 110.213 449.369 106.504 449.369L14.2935 449.369C10.5839 449.369 7.40423 448.044 4.75451 445.394C2.10479 442.745 0.779938 439.565 0.779938 435.855L0.779938 423.137C0.779938 419.427 2.10479 416.247 4.75451 413.598C7.40423 410.948 10.5839 409.623 14.2935 409.623L106.504 409.623C110.213 409.623 113.393 408.298 116.043 405.649C118.692 402.999 120.017 399.819 120.017 396.11L120.017 303.9C120.017 300.19 118.692 297.01 116.043 294.361C113.393 291.711 110.213 290.386 106.504 290.386L14.2935 290.386C10.5839 290.386 7.40424 289.061 4.75451 286.411C2.1048 283.762 0.77994 280.582 0.77994 276.872L0.77994 264.154C0.77994 260.444 2.1048 257.265 4.75451 254.615C7.40424 251.965 10.5839 250.64 14.2935 250.64L106.504 250.64C110.213 250.64 113.393 251.965 116.043 254.615C118.692 257.265 120.017 260.444 120.017 264.154L120.017 276.872C120.017 280.582 121.342 283.762 123.992 286.411C126.641 289.061 129.821 290.386 133.531 290.386Z" fill="white"/>
<path d="M14.2935 501.271L27.0121 501.271C30.7217 501.271 33.9014 502.596 36.5511 505.246C39.2008 507.896 40.5257 511.075 40.5257 514.785L40.5257 567.249C40.5257 570.959 41.8505 574.139 44.5002 576.788C47.15 579.438 50.3296 580.763 54.0392 580.763L265.486 580.763C269.196 580.763 272.376 582.088 275.025 584.737C277.675 587.387 279 590.567 279 594.276L279 606.995C279 610.705 277.675 613.884 275.025 616.534C272.376 619.184 269.196 620.509 265.486 620.509L54.0392 620.509C50.3296 620.509 47.15 621.833 44.5002 624.483C41.8505 627.133 40.5257 630.312 40.5257 634.022L40.5257 686.486C40.5257 690.196 39.2008 693.376 36.5511 696.025C33.9014 698.675 30.7217 700 27.0121 700L14.2935 700C10.5839 700 7.40423 698.675 4.75451 696.025C2.10479 693.376 0.779938 690.196 0.779938 686.486L0.779939 634.022C0.779939 630.312 2.10479 627.133 4.75451 624.483C7.40424 621.833 10.5839 620.509 14.2935 620.509L27.0121 620.509C30.7217 620.509 33.9014 619.184 36.5511 616.534C39.2008 613.884 40.5257 610.705 40.5257 606.995L40.5257 594.276C40.5257 590.567 39.2008 587.387 36.5511 584.737C33.9014 582.088 30.7217 580.763 27.0121 580.763L14.2935 580.763C10.5839 580.763 7.40424 579.438 4.75451 576.788C2.1048 574.139 0.779939 570.959 0.779939 567.249L0.77994 514.785C0.77994 511.075 2.1048 507.896 4.75451 505.246C7.40424 502.596 10.5839 501.271 14.2935 501.271Z" fill="white"/>
</svg>
